# xmcd
#
# Track frame offsets:
#	150
#	16464
#	30519
#	44418
#	61123
#	75594
#	93705
#	108976
#	123572
#	138931
#	152360
#	169569
#	182413
#	197484
#
# Disc length: 2870 seconds
#
# Revision: 1
# Processed by: cddbd v1.5.2PL0 Copyright (c) Steve Scherf et al.
# Submitted via: EasyCDDAExtractor 9.0.0.1
#
DISCID=a50b340e
DTITLE=Sakarina - Juvela
DYEAR=2008
DGENRE=Country
TTITLE0=Juvela
TTITLE1=Ingen Ander Enn Du
TTITLE2=Æ Kan Aldri Sei Nei Te Dæ
TTITLE3=Nu Veit Æ Ka Æ Vil Og Kan
TTITLE4=Hjertets Dør
TTITLE5=Han Må Gå
TTITLE6=Kor Mange Daga
TTITLE7=Æ Har En Engel
TTITLE8=På Vei Tebake
TTITLE9=Førr Mæ Finns Bære Du
TTITLE10=Du Ba Mæ Gå
TTITLE11=Love Du Meir
TTITLE12=Når Du Berøre Mæ
TTITLE13=En Flamme Som Slokkes
EXTD=
EXTT0=
EXTT1=
EXTT2=
EXTT3=
EXTT4=
EXTT5=
EXTT6=
EXTT7=
EXTT8=
EXTT9=
EXTT10=
EXTT11=
EXTT12=
EXTT13=
PLAYORDER=
